<svg width="16" height="19" viewBox="0 0 16 19" fill="none" xmlns="http://www.w3.org/2000/svg">
<path d="M13.0048 6.80191C13.0048 5.52837 12.4989 4.30698 11.5983 3.40645C10.6978 2.50591 9.47642 2 8.20287 2C6.92932 2 5.70794 2.50591 4.8074 3.40645C3.90687 4.30698 3.40096 5.52837 3.40096 6.80191C3.40096 12.4041 1 14.0048 1 14.0048H15.4057C15.4057 14.0048 13.0048 12.4041 13.0048 6.80191Z" stroke="black" stroke-linecap="round" stroke-linejoin="round"/>
<path d="M9.58746 17.2061C9.44676 17.4486 9.2448 17.65 9.00181 17.7899C8.75882 17.9299 8.48333 18.0035 8.20291 18.0035C7.9225 18.0035 7.647 17.9299 7.40401 17.7899C7.16102 17.65 6.95906 17.4486 6.81836 17.2061" stroke="black" stroke-linecap="round" stroke-linejoin="round"/>
<circle cx="12.5" cy="3.5" r="3" fill="#B8019D" stroke="white"/>
</svg>
