<svg width="106" height="26" viewBox="0 0 106 26" fill="none" xmlns="http://www.w3.org/2000/svg">
<path fill-rule="evenodd" clip-rule="evenodd" d="M9.17822 5.99902H16.3664C20.2258 5.99902 21.6786 7.95285 21.4541 10.8233C21.083 15.5622 18.2182 18.184 14.4181 18.184H12.4996C11.9782 18.184 11.6275 18.5291 11.4865 19.4643L10.6719 24.9009C10.6181 25.2534 10.4325 25.4575 10.1542 25.4854H5.63795C5.21304 25.4854 5.06275 25.1607 5.17408 24.4574L7.92763 7.02882C8.03524 6.33116 8.41747 5.99902 9.17822 5.99902Z" fill="#009EE3"/>
<path fill-rule="evenodd" clip-rule="evenodd" d="M40.3864 5.67578C42.8115 5.67578 45.0492 6.99132 44.7431 10.27C44.372 14.1665 42.2845 16.3226 38.991 16.3319H36.1132C35.6994 16.3319 35.499 16.6695 35.3914 17.3616L34.8347 20.9001C34.7512 21.4344 34.4766 21.6979 34.0721 21.6979H31.3947C30.9679 21.6979 30.8195 21.4252 30.9141 20.8147L33.124 6.63321C33.2335 5.93555 33.4951 5.67578 33.9719 5.67578H40.3808H40.3864ZM36.026 13.2684H38.2062C39.57 13.2165 40.4754 12.272 40.5663 10.5687C40.622 9.51664 39.9114 8.76331 38.7814 8.76888L36.7292 8.77816L36.026 13.2684ZM52.0221 20.6125C52.2671 20.3898 52.5157 20.2748 52.4804 20.5494L52.3932 21.2062C52.3487 21.5495 52.4841 21.7313 52.8033 21.7313H55.182C55.5828 21.7313 55.7776 21.5699 55.876 20.9502L57.3418 11.7506C57.416 11.2886 57.3029 11.0623 56.9522 11.0623H54.3359C54.1003 11.0623 53.9852 11.194 53.924 11.554L53.8275 12.1199C53.7774 12.4149 53.642 12.4669 53.5158 12.17C53.0723 11.1198 51.9405 10.6485 50.3615 10.6856C46.6932 10.7617 44.2198 13.5468 43.9545 17.1167C43.7504 19.8777 45.7283 22.0468 48.3371 22.0468C50.2297 22.0468 51.0758 21.4901 52.0296 20.618L52.0221 20.6125ZM50.0293 19.1967C48.4503 19.1967 47.35 17.9369 47.5782 16.3931C47.8065 14.8493 49.2834 13.5894 50.8625 13.5894C52.4415 13.5894 53.5418 14.8493 53.3136 16.3931C53.0853 17.9369 51.6102 19.1967 50.0293 19.1967ZM61.9972 11.0326H59.5851C59.0878 11.0326 58.8856 11.4037 59.0433 11.8601L62.0381 20.6292L59.1008 24.8022C58.854 25.151 59.0452 25.4683 59.3921 25.4683H62.103C62.261 25.4865 62.4209 25.459 62.5637 25.3889C62.7065 25.3189 62.8261 25.2092 62.9083 25.0731L72.1189 11.862C72.4028 11.4556 72.2692 11.0289 71.8035 11.0289H69.2374C68.7976 11.0289 68.6213 11.2033 68.369 11.5688L64.5281 17.1353L62.8118 11.5558C62.7116 11.2181 62.4611 11.0326 61.9991 11.0326H61.9972Z" fill="#113984"/>
<path fill-rule="evenodd" clip-rule="evenodd" d="M81.7009 5.67608C84.126 5.67608 86.3638 6.99162 86.0576 10.2703C85.6865 14.1668 83.5991 16.3229 80.3056 16.3321H77.4296C77.0158 16.3321 76.8154 16.6698 76.7078 17.3619L76.1511 20.9004C76.0677 21.4347 75.793 21.6982 75.3885 21.6982H72.7111C72.2843 21.6982 72.1359 21.4255 72.2305 20.815L74.4441 6.6298C74.5536 5.93213 74.8152 5.67236 75.2921 5.67236H81.7009V5.67608ZM77.3405 13.2687H79.5207C80.8845 13.2168 81.79 12.2723 81.8809 10.569C81.9366 9.51694 81.2259 8.76361 80.0959 8.76917L78.0438 8.77846L77.3405 13.2687ZM93.3367 20.6128C93.5816 20.3901 93.8302 20.2751 93.795 20.5497L93.7078 21.2065C93.6633 21.5498 93.7987 21.7316 94.1178 21.7316H96.4966C96.8974 21.7316 97.0922 21.5702 97.1905 20.9505L98.6564 11.7509C98.7306 11.2889 98.6174 11.0626 98.2667 11.0626H95.6542C95.4185 11.0626 95.3035 11.1943 95.2423 11.5543L95.1458 12.1202C95.0957 12.4152 94.9602 12.4672 94.8341 12.1703C94.3906 11.1201 93.2588 10.6488 91.6797 10.6859C88.0114 10.762 85.5381 13.5471 85.2727 17.117C85.0686 19.878 87.0466 22.0471 89.6554 22.0471C91.548 22.0471 92.3941 21.4904 93.3478 20.6183L93.3367 20.6128ZM91.3458 19.197C89.7667 19.197 88.6664 17.9371 88.8946 16.3934C89.1229 14.8496 90.5998 13.5897 92.1789 13.5897C93.7579 13.5897 94.8582 14.8496 94.63 16.3934C94.4017 17.9371 92.9248 19.197 91.3458 19.197ZM102.317 21.7465H99.5711C99.5234 21.7486 99.4757 21.7402 99.4316 21.7218C99.3875 21.7033 99.3479 21.6754 99.3159 21.64C99.2838 21.6045 99.2599 21.5624 99.246 21.5167C99.2321 21.4709 99.2284 21.4227 99.2353 21.3754L101.647 6.09356C101.67 5.98927 101.728 5.89583 101.811 5.82846C101.894 5.76108 101.997 5.72372 102.104 5.72247H104.85C104.898 5.72033 104.945 5.72877 104.99 5.74718C105.034 5.76559 105.073 5.79351 105.105 5.82897C105.137 5.86442 105.161 5.90652 105.175 5.95226C105.189 5.99799 105.193 6.04625 105.186 6.09356L102.774 21.3754C102.751 21.4803 102.694 21.5746 102.611 21.6427C102.528 21.7108 102.425 21.7487 102.317 21.7502V21.7465Z" fill="#009EE3"/>
<path fill-rule="evenodd" clip-rule="evenodd" d="M4.68294 0H11.8785C13.9047 0 16.3094 0.0649421 17.9163 1.48439C18.9906 2.43255 19.5547 3.94106 19.4248 5.56647C18.9832 11.0606 15.6971 14.1388 11.2885 14.1388H7.74079C7.1359 14.1388 6.73697 14.5396 6.56626 15.6232L5.57543 21.9319C5.51049 22.3401 5.33422 22.5813 5.01878 22.611H0.578601C0.0868962 22.611 -0.0875214 22.2399 0.0405073 21.4198L3.23195 1.19864C3.35998 0.38594 3.80715 0 4.68294 0Z" fill="#113984"/>
<path fill-rule="evenodd" clip-rule="evenodd" d="M6.66992 14.9832L7.92609 7.02873C8.03556 6.33106 8.41779 5.99707 9.17854 5.99707H16.3667C17.5561 5.99707 18.5191 6.18262 19.2724 6.52589C18.5506 11.417 15.387 14.1334 11.2456 14.1334H7.70343C7.22843 14.1352 6.87959 14.3728 6.66992 14.9832Z" fill="#172C70"/>
</svg>
