<svg width="40" height="57" viewBox="0 0 40 57" fill="none" xmlns="http://www.w3.org/2000/svg">
<path d="M-1.95531e-05 0L39.9483 56.7111C39.9483 56.7111 32.4416 57.0374 25.3534 52.9364C22.809 51.4644 14.1892 45.4685 14.1892 45.4685C14.1892 45.4685 12.0185 49.2565 8.93075 52.9364C4.82243 57.8325 0 56.7111 0 56.7111L-1.95531e-05 0Z" fill="#5A0288"/>
<path d="M0 0H15.653C24.2979 0 31.306 7.00808 31.306 15.653C31.306 24.2979 24.2979 31.306 15.653 31.306H0V0Z" fill="#0DC5FF"/>
<path d="M0 0C0 0 19.3026 28.4278 21.2958 30.2389C20.4424 30.7945 18.1573 31.3305 14.5567 31.3305C12.2824 31.3305 7.05248 31.2847 7.05248 31.2847H0V0Z" fill="#B8019D"/>
</svg>
