<svg width="19" height="14" viewBox="0 0 19 14" fill="none" xmlns="http://www.w3.org/2000/svg">
<path d="M14.6884 1.24541e-08H12.9558C12.9094 -1.13047e-05 12.8634 0.00917424 12.8207 0.0270098L3.87569 3.7561H1.86674C1.59112 3.75639 1.32687 3.86442 1.13197 4.05646C0.937074 4.24851 0.827449 4.50889 0.827148 4.78049V7.5122C0.827449 7.78379 0.937074 8.04418 1.13197 8.23622C1.32687 8.42827 1.59112 8.53629 1.86674 8.53659H3.5994V13.6585C3.59939 13.7034 3.60834 13.7478 3.62575 13.7892C3.64316 13.8307 3.66869 13.8683 3.70087 13.9C3.73305 13.9317 3.77126 13.9569 3.81331 13.974C3.85535 13.9912 3.90042 14 3.94593 14C4.58904 13.9993 5.2056 13.7472 5.66035 13.2991C6.1151 12.851 6.3709 12.2435 6.37165 11.6098V11.2371C6.68215 11.185 6.97653 11.0638 7.23246 10.8829C7.48838 10.702 7.69914 10.466 7.84875 10.1929L12.8207 12.2657C12.8634 12.2835 12.9094 12.2927 12.9558 12.2927H14.6884C14.7339 12.2927 14.779 12.2839 14.821 12.2667C14.8631 12.2496 14.9013 12.2244 14.9335 12.1927C14.9657 12.161 14.9912 12.1233 15.0086 12.0819C15.026 12.0405 15.035 11.9961 15.0349 11.9512V0.341463C15.035 0.296618 15.026 0.25221 15.0086 0.210777C14.9912 0.169343 14.9657 0.131696 14.9335 0.0999854C14.9013 0.0682751 14.8631 0.0431236 14.821 0.0259678C14.779 0.0088119 14.7339 -1.21006e-05 14.6884 1.24541e-08ZM4.29246 7.96887V7.17073H7.41125C7.50315 7.17073 7.59129 7.13476 7.65628 7.07072C7.72127 7.00668 7.75778 6.91983 7.75778 6.82927C7.75778 6.73871 7.72127 6.65185 7.65628 6.58782C7.59129 6.52378 7.50315 6.4878 7.41125 6.4878H4.29246V5.80488H7.41125C7.50315 5.80488 7.59129 5.7689 7.65628 5.70487C7.72127 5.64083 7.75778 5.55398 7.75778 5.46341C7.75778 5.37285 7.72127 5.286 7.65628 5.22196C7.59129 5.15793 7.50315 5.12195 7.41125 5.12195H4.29246V4.32381L12.6092 0.856732V11.436L4.29246 7.96887ZM1.52021 7.5122V4.78049C1.5203 4.68995 1.55684 4.60315 1.62181 4.53914C1.68678 4.47512 1.77487 4.43912 1.86674 4.43902H3.5994V7.85366H1.86674C1.77487 7.85357 1.68678 7.81756 1.62181 7.75355C1.55684 7.68953 1.5203 7.60273 1.52021 7.5122ZM5.67859 11.6098C5.67807 12.0032 5.53992 12.3844 5.28742 12.6891C5.03493 12.9939 4.68353 13.2035 4.29246 13.2827V8.71034L5.67859 9.28818V11.6098ZM6.37165 10.5391V9.57713L7.20998 9.92661C7.0223 10.2307 6.72147 10.4505 6.37165 10.5391ZM14.3419 11.6098H13.3023V0.682927H14.3419V11.6098Z" fill="#5A0288"/>
<path d="M16.0741 6.48761H17.8067C17.8986 6.48761 17.9868 6.45164 18.0518 6.3876C18.1168 6.32357 18.1533 6.23671 18.1533 6.14615C18.1533 6.05559 18.1168 5.96874 18.0518 5.9047C17.9868 5.84066 17.8986 5.80469 17.8067 5.80469H16.0741C15.9822 5.80469 15.894 5.84066 15.829 5.9047C15.764 5.96874 15.7275 6.05559 15.7275 6.14615C15.7275 6.23671 15.764 6.32357 15.829 6.3876C15.894 6.45164 15.9822 6.48761 16.0741 6.48761Z" fill="#5A0288"/>
<path d="M16.2905 3.68113L18.0232 2.31528C18.0589 2.2873 18.0886 2.25267 18.1107 2.21335C18.1327 2.17403 18.1467 2.13081 18.1518 2.08616C18.1569 2.04151 18.153 1.9963 18.1403 1.95314C18.1276 1.90998 18.1065 1.86971 18.078 1.83463C18.0495 1.79955 18.0142 1.77036 17.9743 1.74873C17.9343 1.72709 17.8904 1.71345 17.8451 1.70856C17.7997 1.70368 17.7539 1.70766 17.7101 1.72028C17.6663 1.73289 17.6255 1.75389 17.59 1.78208L15.8574 3.14793C15.8217 3.17591 15.7919 3.21054 15.7699 3.24986C15.7478 3.28918 15.7338 3.3324 15.7287 3.37705C15.7236 3.4217 15.7275 3.46691 15.7402 3.51007C15.7529 3.55323 15.7741 3.5935 15.8026 3.62858C15.8311 3.66366 15.8663 3.69285 15.9063 3.71448C15.9462 3.73612 15.9901 3.74976 16.0355 3.75465C16.0808 3.75953 16.1267 3.75555 16.1704 3.74293C16.2142 3.73032 16.255 3.70932 16.2905 3.68113Z" fill="#5A0288"/>
<path d="M16.2905 8.61167C16.255 8.58348 16.2142 8.56248 16.1704 8.54987C16.1267 8.53725 16.0808 8.53327 16.0355 8.53815C15.9901 8.54304 15.9462 8.55668 15.9063 8.57832C15.8663 8.59995 15.8311 8.62914 15.8026 8.66422C15.7741 8.6993 15.7529 8.73957 15.7402 8.78273C15.7275 8.82589 15.7236 8.8711 15.7287 8.91575C15.7338 8.9604 15.7478 9.00362 15.7699 9.04294C15.7919 9.08226 15.8217 9.11689 15.8574 9.14487L17.59 10.5107C17.6255 10.5389 17.6663 10.5599 17.7101 10.5725C17.7539 10.5851 17.7997 10.5891 17.8451 10.5842C17.8904 10.5794 17.9343 10.5657 17.9743 10.5441C18.0142 10.5224 18.0495 10.4932 18.078 10.4582C18.1065 10.4231 18.1276 10.3828 18.1403 10.3397C18.153 10.2965 18.1569 10.2513 18.1518 10.2066C18.1467 10.162 18.1327 10.1188 18.1107 10.0795C18.0886 10.0401 18.0589 10.0055 18.0232 9.97752L16.2905 8.61167Z" fill="#5A0288"/>
</svg>
