<svg width="24" height="24" viewBox="0 0 24 24" fill="none" xmlns="http://www.w3.org/2000/svg">
<path d="M7.17213 22.6885H4.06885C3.52016 22.6885 2.99394 22.4705 2.60595 22.0826C2.21797 21.6946 2 21.1684 2 20.6197V13.3787C2 12.83 2.21797 12.3038 2.60595 11.9158C2.99394 11.5278 3.52016 11.3098 4.06885 11.3098H7.17213M14.4131 9.24098V5.10328C14.4131 4.28024 14.0862 3.49091 13.5042 2.90893C12.9222 2.32695 12.1329 2 11.3098 2L7.17213 11.3098V22.6885H18.8405C19.3394 22.6942 19.8236 22.5193 20.2037 22.1961C20.5839 21.873 20.8345 21.4233 20.9093 20.93L22.3368 11.6202C22.3818 11.3236 22.3618 11.0209 22.2782 10.7329C22.1946 10.4449 22.0493 10.1785 21.8526 9.95216C21.6558 9.72585 21.4121 9.54503 21.1385 9.42223C20.8649 9.29943 20.5679 9.23758 20.268 9.24098H14.4131Z" stroke="white" stroke-width="2.06885" stroke-linecap="round" stroke-linejoin="round"/>
</svg>
