<svg width="144" height="57" viewBox="0 0 144 57" fill="none" xmlns="http://www.w3.org/2000/svg">
<path d="M59.4965 39.212C59.6673 39.4587 59.7527 39.7243 59.7527 40.009C59.7527 40.3505 59.6103 40.6446 59.3257 40.8913C59.0601 41.119 58.747 41.2329 58.3864 41.2329C57.8551 41.2329 57.4282 40.9957 57.1056 40.5213L53.2915 34.601C52.8551 33.9179 52.3902 33.4435 51.8968 33.1778C51.4035 32.8932 50.7583 32.7509 49.9614 32.7509H46.745V39.6959C46.745 40.1513 46.6122 40.5118 46.3465 40.7775C46.0999 41.0431 45.7488 41.1759 45.2934 41.1759C44.857 41.1759 44.5059 41.0431 44.2403 40.7775C43.9746 40.5118 43.8418 40.1513 43.8418 39.6959V22.3903C43.8418 21.9539 43.9651 21.6123 44.2118 21.3656C44.4775 21.1 44.838 20.9672 45.2934 20.9672H52.3807C54.6008 20.9672 56.2896 21.4605 57.4471 22.4472C58.6236 23.434 59.2119 24.8761 59.2119 26.7736C59.2119 28.3486 58.7659 29.6294 57.8741 30.6161C56.9822 31.5839 55.7109 32.2006 54.06 32.4662C54.5534 32.5991 54.9993 32.8363 55.3978 33.1778C55.7963 33.5194 56.1853 33.9938 56.5648 34.601L59.4965 39.212ZM52.0392 30.3884C53.5192 30.3884 54.6103 30.1038 55.3124 29.5345C56.0335 28.9463 56.394 28.045 56.394 26.8306C56.394 25.6161 56.043 24.7338 55.3409 24.1835C54.6388 23.6142 53.5382 23.3296 52.0392 23.3296H46.7166V30.3884H52.0392Z" fill="#565656"/>
<path d="M74.0249 37.5327C74.2905 37.5327 74.5088 37.637 74.6795 37.8458C74.8503 38.0545 74.9357 38.3201 74.9357 38.6427C74.9357 39.193 74.5941 39.6579 73.911 40.0374C73.2469 40.4169 72.5163 40.711 71.7194 40.9198C70.9414 41.1285 70.1919 41.2329 69.4708 41.2329C67.2696 41.2329 65.5334 40.5972 64.262 39.3258C62.9907 38.0355 62.355 36.2803 62.355 34.0602C62.355 32.637 62.6302 31.3752 63.1805 30.2746C63.7497 29.174 64.5372 28.3201 65.5429 27.7129C66.5676 27.1057 67.7251 26.8021 69.0154 26.8021C70.875 26.8021 72.3456 27.3998 73.4272 28.5953C74.5088 29.7907 75.0496 31.4036 75.0496 33.434C75.0496 34.193 74.708 34.5725 74.0249 34.5725H65.2298C65.4195 37.5137 66.8332 38.9843 69.4708 38.9843C70.1729 38.9843 70.7801 38.8894 71.2924 38.6997C71.8048 38.5099 72.3456 38.2632 72.9148 37.9596C72.9717 37.9217 73.1236 37.8458 73.3702 37.7319C73.6359 37.5991 73.8541 37.5327 74.0249 37.5327ZM69.0723 28.9084C67.9717 28.9084 67.0894 29.2594 66.4252 29.9615C65.7611 30.6636 65.3626 31.6503 65.2298 32.9217H72.5733C72.5163 31.6313 72.1843 30.6446 71.5771 29.9615C70.9888 29.2594 70.1539 28.9084 69.0723 28.9084Z" fill="#565656"/>
<path d="M84.0523 26.8021C85.8929 26.8021 87.2592 27.267 88.151 28.1968C89.0618 29.1266 89.5172 30.5402 89.5172 32.4378V39.8097C89.5172 40.2461 89.3939 40.5877 89.1472 40.8344C88.9005 41.0621 88.559 41.1759 88.1226 41.1759C87.7051 41.1759 87.373 41.0526 87.1263 40.8059C86.8797 40.5592 86.7563 40.2272 86.7563 39.8097V38.7566C86.3958 39.5535 85.855 40.1702 85.1339 40.6067C84.4318 41.0241 83.6064 41.2329 82.6576 41.2329C81.7468 41.2329 80.9119 41.0526 80.1529 40.6921C79.3939 40.3126 78.7962 39.7907 78.3597 39.1266C77.9423 38.4625 77.7335 37.7224 77.7335 36.9065C77.7335 35.9008 77.9897 35.1133 78.502 34.544C79.0333 33.9558 79.8967 33.5384 81.0922 33.2917C82.3066 33.045 83.9669 32.9217 86.0732 32.9217H86.7279V32.0962C86.7279 31.0336 86.5096 30.2651 86.0732 29.7907C85.6368 29.3163 84.9347 29.0791 83.9669 29.0791C83.3028 29.0791 82.6766 29.1645 82.0884 29.3353C81.5001 29.5061 80.855 29.7528 80.1529 30.0753C79.6406 30.36 79.28 30.5023 79.0713 30.5023C78.7867 30.5023 78.5495 30.3979 78.3597 30.1892C78.1889 29.9805 78.1035 29.7148 78.1035 29.3922C78.1035 29.1076 78.1795 28.8609 78.3313 28.6522C78.502 28.4245 78.7677 28.2063 79.1282 27.9975C79.7924 27.637 80.5703 27.3524 81.4622 27.1436C82.354 26.9159 83.2174 26.8021 84.0523 26.8021ZM83.17 39.0981C84.2136 39.0981 85.0675 38.7471 85.7317 38.045C86.3958 37.3239 86.7279 36.4036 86.7279 35.2841V34.544H86.2155C84.7354 34.544 83.5969 34.6105 82.8 34.7433C82.003 34.8761 81.4337 35.1038 81.0922 35.4264C80.7506 35.73 80.5798 36.1759 80.5798 36.7642C80.5798 37.4473 80.8265 38.0071 81.3199 38.4435C81.8132 38.8799 82.4299 39.0981 83.17 39.0981Z" fill="#565656"/>
<path d="M99.3984 41.2329C98.0511 41.2329 96.8652 40.9387 95.8405 40.3505C94.8348 39.7623 94.0473 38.9274 93.4781 37.8458C92.9278 36.7642 92.6526 35.5118 92.6526 34.0886C92.6526 32.6465 92.9373 31.3752 93.5065 30.2746C94.0948 29.174 94.9107 28.3201 95.9543 27.7129C96.998 27.1057 98.1934 26.8021 99.5407 26.8021C100.262 26.8021 100.983 26.9065 101.704 27.1152C102.444 27.3239 103.099 27.6085 103.668 27.9691C104.275 28.3865 104.579 28.8704 104.579 29.4207C104.579 29.7433 104.493 30.0184 104.322 30.2461C104.152 30.4549 103.933 30.5592 103.668 30.5592C103.497 30.5592 103.326 30.5213 103.156 30.4454C102.985 30.3505 102.767 30.2177 102.501 30.0469C102.026 29.7433 101.581 29.5156 101.163 29.3638C100.765 29.193 100.281 29.1076 99.7115 29.1076C98.4211 29.1076 97.4154 29.544 96.6944 30.4169C95.9923 31.2898 95.6413 32.5042 95.6413 34.0602C95.6413 35.6162 95.9923 36.8211 96.6944 37.675C97.3965 38.5099 98.3927 38.9274 99.683 38.9274C100.252 38.9274 100.755 38.842 101.192 38.6712C101.628 38.5004 102.074 38.2727 102.529 37.9881C102.738 37.8552 102.947 37.7414 103.156 37.6465C103.364 37.5516 103.554 37.5042 103.725 37.5042C103.99 37.5042 104.209 37.6181 104.379 37.8458C104.55 38.0545 104.636 38.3201 104.636 38.6427C104.636 38.9084 104.56 39.1551 104.408 39.3828C104.275 39.5915 104.038 39.8097 103.696 40.0374C103.127 40.4169 102.463 40.711 101.704 40.9198C100.945 41.1285 100.176 41.2329 99.3984 41.2329Z" fill="#565656"/>
<path d="M114.723 26.8021C118.025 26.8021 119.675 28.6712 119.675 32.4093V39.8097C119.675 40.2272 119.543 40.5592 119.277 40.8059C119.011 41.0526 118.66 41.1759 118.224 41.1759C117.787 41.1759 117.436 41.0526 117.171 40.8059C116.924 40.5592 116.801 40.2272 116.801 39.8097V32.4378C116.801 31.2993 116.563 30.4643 116.089 29.933C115.634 29.4017 114.913 29.1361 113.926 29.1361C112.768 29.1361 111.839 29.4966 111.136 30.2177C110.434 30.9387 110.083 31.9065 110.083 33.1209V39.8097C110.083 40.2272 109.951 40.5592 109.685 40.8059C109.438 41.0526 109.097 41.1759 108.66 41.1759C108.224 41.1759 107.873 41.0526 107.607 40.8059C107.341 40.5592 107.209 40.2272 107.209 39.8097V22.1911C107.209 21.7736 107.341 21.4415 107.607 21.1949C107.892 20.9482 108.252 20.8248 108.689 20.8248C109.106 20.8248 109.438 20.9482 109.685 21.1949C109.951 21.4226 110.083 21.7357 110.083 22.1342V29.2499C110.558 28.453 111.193 27.8457 111.99 27.4283C112.787 27.0108 113.698 26.8021 114.723 26.8021Z" fill="#565656"/>
<path d="M125.06 41.1759C124.642 41.1759 124.291 41.0621 124.007 40.8344C123.741 40.6067 123.608 40.2651 123.608 39.8097V28.2537C123.608 27.7983 123.741 27.4567 124.007 27.229C124.291 26.9824 124.642 26.859 125.06 26.859C125.477 26.859 125.819 26.9824 126.085 27.229C126.35 27.4567 126.483 27.7983 126.483 28.2537V39.8097C126.483 40.2651 126.35 40.6067 126.085 40.8344C125.819 41.0621 125.477 41.1759 125.06 41.1759ZM125.06 24.0696C124.51 24.0696 124.073 23.9178 123.751 23.6142C123.428 23.3106 123.267 22.9121 123.267 22.4188C123.267 21.9254 123.428 21.5364 123.751 21.2518C124.073 20.9482 124.51 20.7964 125.06 20.7964C125.591 20.7964 126.018 20.9482 126.341 21.2518C126.682 21.5364 126.853 21.9254 126.853 22.4188C126.853 22.9121 126.692 23.3106 126.369 23.6142C126.047 23.9178 125.61 24.0696 125.06 24.0696Z" fill="#565656"/>
<path d="M136.536 41.2329C135.17 41.2329 133.965 40.9387 132.921 40.3505C131.896 39.7623 131.099 38.9274 130.53 37.8458C129.98 36.7452 129.705 35.4738 129.705 34.0317C129.705 32.5706 129.98 31.2993 130.53 30.2177C131.099 29.1171 131.896 28.2727 132.921 27.6844C133.965 27.0962 135.17 26.8021 136.536 26.8021C137.902 26.8021 139.097 27.0962 140.122 27.6844C141.166 28.2727 141.963 29.1171 142.513 30.2177C143.082 31.2993 143.367 32.5706 143.367 34.0317C143.367 35.4738 143.082 36.7452 142.513 37.8458C141.963 38.9274 141.166 39.7623 140.122 40.3505C139.097 40.9387 137.902 41.2329 136.536 41.2329ZM136.536 38.9558C137.807 38.9558 138.775 38.5384 139.439 37.7034C140.122 36.8685 140.464 35.6446 140.464 34.0317C140.464 32.4378 140.122 31.2234 139.439 30.3884C138.756 29.5345 137.788 29.1076 136.536 29.1076C135.283 29.1076 134.316 29.5345 133.633 30.3884C132.949 31.2234 132.608 32.4378 132.608 34.0317C132.608 35.6446 132.94 36.8685 133.604 37.7034C134.287 38.5384 135.264 38.9558 136.536 38.9558Z" fill="#565656"/>
<path d="M-1.93714e-05 0L39.577 56.184C39.577 56.184 32.1401 56.5073 25.1177 52.4444C22.597 50.986 14.0573 45.0459 14.0573 45.0459C14.0573 45.0459 11.9068 48.7987 8.84774 52.4444C4.77761 57.295 0 56.184 0 56.184L-1.93714e-05 0Z" fill="#5A0288"/>
<path d="M0 0H15.5075C24.0721 0 31.015 6.94294 31.015 15.5075C31.015 24.072 24.072 31.015 15.5075 31.015H0V0Z" fill="#0DC5FF"/>
<path d="M0 0C0 0 19.1231 28.1636 21.0978 29.9578C20.2524 30.5083 17.9885 31.0392 14.4214 31.0392C12.1682 31.0392 6.98693 30.9939 6.98693 30.9939H0V0Z" fill="#B8019D"/>
</svg>
