<svg width="129" height="183" viewBox="0 0 129 183" fill="none" xmlns="http://www.w3.org/2000/svg">
<path d="M126.077 182.544H8.50176C6.99699 182.544 5.76654 181.313 5.76654 179.808V115.456C5.76654 113.951 6.99699 112.721 8.50176 112.721H126.077C127.582 112.721 128.812 113.951 128.812 115.456V179.808C128.812 181.313 127.582 182.544 126.077 182.544Z" fill="#3B76CA"/>
<path d="M120.311 182.544H2.73522C1.23045 182.544 0 181.313 0 179.808V115.456C0 113.951 1.23045 112.721 2.73522 112.721H120.311C121.815 112.721 123.046 113.951 123.046 115.456V179.808C123.047 181.313 121.815 182.544 120.311 182.544Z" fill="#699DEE"/>
<path d="M109.436 115.967H3.52734V179.294H109.436V115.967Z" fill="#A6D9F1"/>
<path d="M116.882 155.456H116.36C114.962 155.456 113.819 154.313 113.819 152.914V142.35C113.819 140.952 114.962 139.809 116.36 139.809H116.882C118.28 139.809 119.424 140.952 119.424 142.35V152.914C119.424 154.311 118.28 155.456 116.882 155.456Z" fill="#3B76CA"/>
<path d="M109.438 115.967V179.294H36.1502L84.1501 115.967H109.438Z" fill="#CFF1FF"/>
<path d="M71.184 115.967L18.7839 179.294H11.7446L65.3649 115.967H71.184Z" fill="#CFF1FF"/>
<path d="M19.5068 115.967L3.52734 133.604V115.967H19.5068Z" fill="#CFF1FF"/>
<path d="M58.0231 146.597C58.0218 147.118 57.7655 147.475 57.3297 147.716C57.3284 147.718 57.3258 147.719 57.3233 147.719C56.5171 148.162 55.1033 148.207 53.5639 148.141C53.3665 148.133 53.1897 148.128 53.032 148.128C52.991 148.128 52.9487 148.128 52.909 148.129C52.8769 148.129 52.8449 148.13 52.8141 148.13C51.2914 148.168 51.4516 148.624 48.5574 148.872C45.2569 149.154 44.0418 148.144 43.847 147.684C43.683 147.295 45.0993 146.851 46.6823 146.346C46.7592 146.322 46.8348 146.296 46.913 146.272C47.1232 146.205 47.3347 146.135 47.5461 146.067C49.4303 145.44 51.285 144.698 51.7477 142.791C52.2386 140.768 50.7633 135.125 50.7633 135.125L55.9928 134.561C55.9928 134.561 56.4965 140.46 56.8259 142.298C57.0028 143.28 57.4476 144.061 57.7078 144.9C57.727 144.959 57.7437 145.018 57.7603 145.077C57.8911 145.571 58.0244 146.076 58.0231 146.597Z" fill="#E49963"/>
<path d="M58.0231 146.597C58.0218 147.118 57.7655 147.475 57.3297 147.716C57.3284 147.718 57.3258 147.719 57.3233 147.719C56.4645 148.116 55.0738 148.174 53.5665 148.13C53.3691 148.125 53.1922 148.124 53.032 148.127C52.991 148.127 52.9487 148.127 52.909 148.128C52.8769 148.128 52.8449 148.129 52.8141 148.129C51.2914 148.166 51.4516 148.623 48.5574 148.871C45.2569 149.153 44.0418 148.143 43.847 147.683C43.683 147.293 45.0993 146.85 46.6823 146.345C47.1257 146.517 49.2419 147.251 51.7451 146.777C53.9472 146.363 56.1338 145.267 57.7065 144.9C57.7257 144.959 57.7424 145.018 57.759 145.077C57.8911 145.571 58.0244 146.076 58.0231 146.597Z" fill="#9E3A38"/>
<path d="M24.0903 139.922C23.7994 141.375 21.7294 141.132 19.4171 140.567C17.1048 140.002 17.6534 140.673 14.3619 140.309C11.0704 139.945 10.0732 138.718 9.97321 138.228C9.88349 137.793 11.51 137.641 13.2545 137.44C13.4737 137.415 13.6941 137.388 13.9146 137.36C15.8846 137.113 17.3266 135.843 19.1159 134.798C20.8103 133.81 23.3392 129.781 23.3392 129.781L27.8535 130.139C27.8535 130.139 25.4849 133.737 24.5684 135.302C24.0301 136.222 24.0583 137.438 24.1249 138.378C24.1595 138.889 24.1929 139.411 24.0903 139.922Z" fill="#E49963"/>
<path d="M19.4171 140.567C17.1048 140.002 17.6534 140.673 14.3619 140.309C11.0704 139.945 10.0732 138.717 9.97321 138.228C9.88349 137.793 11.51 137.641 13.2545 137.439L13.2712 137.473C13.2712 137.473 15.245 138.872 17.9854 138.938C20.2182 138.992 22.5843 138.352 24.1262 138.378C24.1608 138.888 24.1941 139.411 24.0916 139.922C23.7994 141.374 21.7294 141.132 19.4171 140.567Z" fill="#9E3A38"/>
<path d="M34.1353 73.617C34.1353 73.617 33.0599 70.9817 31.8769 70.8741C30.6939 70.7664 26.9294 70.1755 26.6602 70.7126C26.3911 71.2509 26.6602 73.1863 27.4664 73.8849C28.2727 74.5834 33.274 75.7139 33.274 75.7139L34.1353 73.617Z" fill="#E49963"/>
<path d="M41.39 111.056L51.1196 137.24C51.1196 137.24 52.6142 137.385 54.0471 136.972C55.3661 136.593 56.8772 135.594 56.8772 135.594C56.8772 135.594 54.4637 110.454 50.0391 105.224C45.6133 99.995 41.39 111.056 41.39 111.056Z" fill="#9E3A38"/>
<path d="M79.8717 100.463C79.8717 100.463 51.9156 91.0099 45.6813 93.021C39.4469 95.032 20.7271 132.277 20.7271 132.277C20.7271 132.277 21.1487 132.838 22.3023 133.271C23.3751 133.674 25.9719 133.648 25.9719 133.648C25.9719 133.648 42.8666 119.167 44.8776 114.944C46.8887 110.721 47.6936 106.698 49.7047 107.1C51.7157 107.502 75.6496 116.955 81.0804 111.323C86.5111 105.691 85.0909 98.3748 85.0909 98.3748L79.8717 100.463Z" fill="#B74B42"/>
<path d="M62.7874 56.4883C62.3413 55.5668 61.8414 53.93 61.5979 51.0115C61.6351 51.3011 62.1388 54.9823 63.5538 57.0651C69.3678 60.8822 80.5113 73.6278 80.2908 76.0426C80.2908 76.0426 84.2168 69.3852 84.2834 69.3455C84.2834 69.3455 91.524 60.1387 82.9427 54.8644C78.581 52.1843 78.604 48.7441 78.7861 45.755C78.9693 42.766 77.5966 29.9012 68.859 33.2683C68.859 33.2683 67.4567 32.6454 66.8287 32.739C66.8287 32.739 67.3414 32.8377 67.6029 33.1068C66.5903 33.0466 65.1419 33.1222 63.9333 33.8092C60.7302 35.628 57.8642 51.9574 62.7874 56.4883Z" fill="#163560"/>
<path d="M63.8974 57.2573C63.8679 57.2701 66.7044 58.7428 68.8372 58.1596C70.8444 57.6123 72.1556 55.0104 72.1274 55.0053C71.2776 54.8361 71.0328 53.6684 71.0508 48.6504L70.6662 48.726L64.2063 50.0052C64.2063 50.0052 64.3537 52.038 64.3575 53.953C64.3639 55.5603 64.2665 57.0855 63.8974 57.2573Z" fill="#E49963"/>
<path d="M64.2075 50.0038C64.2075 50.0038 64.3549 52.0366 64.3588 53.9515C67.9733 53.8503 69.8843 50.5524 70.6675 48.7246L64.2075 50.0038Z" fill="#D68D5D"/>
<path d="M71.3353 48.0192C71.3353 48.0192 73.2297 45.0263 73.6847 42.4667C74.009 40.6389 73.0785 33.8662 66.2724 34.8416C66.2724 34.8416 64.296 35.0365 62.4374 36.2913C60.9596 37.2898 58.8268 39.4444 61.2121 45.3545L61.8312 47.3514L71.3353 48.0192Z" fill="#163560"/>
<path d="M63.0002 51.8165C63.0002 51.8165 71.5532 51.9574 71.5584 46.6305C71.5648 41.3036 72.6722 37.7327 67.212 37.4174C61.7517 37.1021 60.6879 39.1336 60.2534 40.9114C59.8202 42.6892 60.7764 51.6421 63.0002 51.8165Z" fill="#E49963"/>
<path d="M63.3167 37.2861C63.3167 37.2861 65.6585 43.5358 69.2525 44.46C72.8465 45.3841 74.4051 44.4215 74.4051 44.4215C74.4051 44.4215 71.648 42.2323 71.0764 38.4089C71.0764 38.4089 65.083 34.3111 63.3167 37.2861Z" fill="#163560"/>
<path d="M63.8974 37.7944C63.8974 37.7944 62.1491 39.1903 61.7222 40.5463C61.2954 41.9024 61.1044 44.6953 60.2905 44.6005C60.2905 44.6005 58.5268 40.3528 60.5084 37.9495C62.6105 35.4014 63.8974 37.7944 63.8974 37.7944Z" fill="#163560"/>
<path d="M82.9427 80.2638C83.7861 76.7262 80.9163 69.8625 77.9209 64.1805C75.2023 59.0305 72.3812 54.852 72.1287 55.002C64.9599 59.2561 64.3126 55.7197 64.3126 55.7197C64.3126 55.7197 57.8014 56.5849 55.9582 59.7585C53.4076 64.1472 50.6313 77.3171 47.9025 77.1235C46.6502 77.0338 34.0456 72.2965 34.0456 72.2965C34.0456 72.2965 31.9461 74.264 32.3486 76.6775C32.3486 76.6775 38.5714 80.8444 43.8343 83.504C46.6182 84.9101 49.133 85.8945 50.316 85.6163C52.7141 85.0524 56.4581 79.4935 58.482 76.2225C58.4871 76.2148 58.491 76.2084 58.4948 76.2007C61.0775 90.8202 57.5655 94.1489 59.3433 95.6908C61.2211 97.3186 63.9025 94.9154 69.8023 97.4724C73.6719 99.1515 79.0424 101.578 82.6569 102.001C84.5526 102.224 85.9676 101.893 86.4291 100.613C87.7698 96.8893 81.3341 87.007 82.9427 80.2638Z" fill="#699DEE"/>
<path d="M64.9022 48.587C64.9022 48.587 64.7433 49.2638 63.0591 49.16C63.0591 49.16 61.6453 49.0728 61.6889 48.3294C61.6889 48.3281 63.0591 47.7988 64.9022 48.587Z" fill="white"/>
<path d="M86.4291 100.61C85.9676 101.891 84.5526 102.22 82.6569 101.999C80.1549 100.909 69.346 96.7204 69.4665 93.8839C69.646 89.6823 71.5442 89.549 70.2035 84.3631C69.1269 80.2 79.1142 72.4583 80.7074 70.7754C83.7028 76.4586 83.7861 76.7265 82.9427 80.2641C81.3341 87.0074 87.7698 96.8896 86.4291 100.61Z" fill="#3B76CA"/>
<path d="M58.4807 76.2204C56.4569 79.4927 52.7129 85.0504 50.3148 85.6143C49.1317 85.8937 46.6169 84.9094 43.833 83.502C45.8646 84.0262 47.8384 84.0109 49.7559 83.8263C51.8336 83.6251 52.4373 81.077 55.7224 77.2561C57.854 74.7798 58.3769 75.4027 58.4807 76.2204Z" fill="#3B76CA"/>
<path d="M65.4457 83.7795C65.1765 83.6129 64.651 83.6782 64.2703 83.7577V83.2066C64.2703 83.0848 64.2614 82.9656 64.2473 82.8477H58.5409C58.5256 82.9656 58.5179 83.0848 58.5179 83.2066V84.3268C58.5179 85.9085 59.8124 87.203 61.3941 87.203C62.2503 87.203 63.0232 86.8236 63.5513 86.2238C63.5513 86.2238 64.9086 85.8892 65.3355 85.3829C65.7623 84.8767 65.8994 84.0589 65.4457 83.7795ZM65.1445 84.8138C65.0009 85.1855 64.3536 85.3868 64.0332 85.4637C64.1614 85.1702 64.2408 84.851 64.2626 84.5165C64.46 84.2473 64.7702 84.0884 64.9983 84.1307C65.2034 84.1691 65.3265 84.3434 65.1445 84.8138Z" fill="#C45446"/>
<path d="M58.9844 83.2059V84.3261C58.9844 85.9078 60.279 87.2036 61.8607 87.2036C61.9914 87.2036 62.1209 87.1947 62.2477 87.1754C60.8468 86.9857 59.7586 85.7771 59.7586 84.3261V83.2059C59.7586 83.0841 59.7663 82.9636 59.7817 82.8457H59.0088C58.9934 82.9636 58.9844 83.0841 58.9844 83.2059Z" fill="#E37970"/>
<path d="M62.5656 86.9512H60.2175V87.3024H62.5656V86.9512Z" fill="#C45446"/>
<path d="M68.495 84.2632C68.495 84.2632 66.6852 82.8546 64.9753 83.1904C63.2655 83.5262 62.4272 84.699 62.4952 85.2348C62.5631 85.7706 63.4667 87.2792 64.7741 87.4137C66.0815 87.5483 69.8024 86.6088 69.8024 86.6088L68.495 84.2632Z" fill="#E49963"/>
<path d="M72.1287 55.0039C72.1287 55.0039 79.0988 55.4333 81.5123 58.7991C84.9089 63.5365 93.0621 84.6108 89.2002 87.3038C84.8512 90.3364 67.9925 87.2141 67.9925 87.2141C67.9925 87.2141 67.4785 84.8121 68.1938 83.6495C68.909 82.487 80.5292 80.6105 81.0663 80.0735C81.602 79.5377 74.3615 69.6145 74.3615 68.0059C74.3615 66.3973 72.1287 55.0039 72.1287 55.0039Z" fill="#699DEE"/>
<path d="M45.7336 32.6895H27.3714C22.5405 32.6895 18.5889 28.7379 18.5889 23.907V8.78249C18.5889 3.95161 22.5405 0 27.3714 0H45.7336C50.5645 0 54.5161 3.95161 54.5161 8.78249V23.907C54.5161 28.7379 50.5632 32.6895 45.7336 32.6895Z" fill="#A6D9F1"/>
<path d="M22.0688 9.47315L46.9103 7.33008L33.9352 15.7575L22.0688 9.47315Z" fill="#E69D43"/>
<path d="M34.7863 29.1171L46.9103 7.33008L33.9095 15.7191L34.7863 29.1171Z" fill="#CA5F00"/>
<path d="M32.8805 67.9495L28.5905 66.7997C28.4431 66.76 28.3137 66.7946 28.2227 66.8741L28.2175 66.8728L27.6177 67.2355L28.097 76.6973L32.2178 77.8009L32.5216 77.7766L33.2163 77.351V77.3485C33.3124 77.2844 33.3752 77.1754 33.3752 77.0332V68.5762C33.3752 68.3032 33.1522 68.0225 32.8805 67.9495Z" fill="#CA5F00"/>
<path d="M32.2178 77.8005L27.9278 76.6508C27.6561 76.5777 27.4344 76.2958 27.4344 76.0253V67.5684C27.4344 67.2967 27.6561 67.1339 27.9278 67.2069L32.2178 68.3567C32.4896 68.4297 32.7113 68.7117 32.7113 68.9834V77.4404C32.7113 77.7108 32.4896 77.8736 32.2178 77.8005Z" fill="#E69D43"/>
<path d="M29.0545 68.5219L28.0547 68.2233C27.9048 68.1784 27.7868 68.0182 27.7907 67.8682C27.7945 67.717 27.9214 67.6311 28.0701 67.676L29.0699 67.9746C29.2198 68.0195 29.3377 68.1797 29.3339 68.3296C29.3288 68.4809 29.2032 68.5668 29.0545 68.5219Z" fill="#CA5F00"/>
<path d="M50.6363 49.9891C50.6363 49.6084 50.9452 49.3008 51.3246 49.3008C51.704 49.3008 52.0129 49.6097 52.0129 49.9891C52.0129 50.3698 51.704 50.6774 51.3246 50.6774C50.9452 50.6774 50.6363 50.3685 50.6363 49.9891Z" fill="#A6D9F1"/>
<path d="M43.2189 47.3068C43.2189 46.5864 43.8033 46.002 44.5237 46.002C45.244 46.002 45.8285 46.5864 45.8285 47.3068C45.8285 48.0271 45.244 48.6116 44.5237 48.6116C43.8033 48.6116 43.2189 48.0271 43.2189 47.3068Z" fill="#A6D9F1"/>
<path d="M35.9732 40.5908C35.9732 39.4462 36.9012 38.5195 38.0445 38.5195C39.1878 38.5195 40.1158 39.4475 40.1158 40.5908C40.1158 41.7354 39.1878 42.6621 38.0445 42.6621C36.9012 42.6621 35.9732 41.7354 35.9732 40.5908Z" fill="#A6D9F1"/>
</svg>
