<svg width="34" height="34" viewBox="0 0 34 34" fill="none" xmlns="http://www.w3.org/2000/svg">
<path d="M13.8887 18.364C14.5314 19.2233 15.3515 19.9343 16.2932 20.4488C17.2349 20.9633 18.2762 21.2692 19.3465 21.3459C20.4169 21.4225 21.4912 21.2681 22.4966 20.893C23.502 20.518 24.415 19.9311 25.1736 19.1722L29.6636 14.6822C31.0268 13.2708 31.7811 11.3805 31.764 9.41835C31.747 7.45623 30.96 5.57931 29.5725 4.19183C28.185 2.80435 26.3081 2.01733 24.346 2.00028C22.3838 1.98323 20.4935 2.73751 19.0821 4.10067L16.5079 6.65999" stroke="white" stroke-width="2.99335" stroke-linecap="round" stroke-linejoin="round"/>
<path d="M19.8756 15.3701C19.2329 14.5109 18.4128 13.7999 17.4711 13.2854C16.5294 12.7709 15.4881 12.4649 14.4178 12.3883C13.3474 12.3116 12.2731 12.466 11.2677 12.8411C10.2623 13.2161 9.34934 13.803 8.5907 14.5619L4.10067 19.052C2.73751 20.4633 1.98323 22.3537 2.00028 24.3158C2.01733 26.2779 2.80435 28.1548 4.19183 29.5423C5.57931 30.9298 7.45623 31.7168 9.41835 31.7338C11.3805 31.7509 13.2708 30.9966 14.6822 29.6335L17.2415 27.0741" stroke="white" stroke-width="2.99335" stroke-linecap="round" stroke-linejoin="round"/>
</svg>
